<?xml version="1.0" encoding="UTF-8" standalone="no"?>
<!-- Created with Inkscape (http://www.inkscape.org/) -->

<svg
   width="815"
   height="380"
   viewBox="0 0 215.6359 100.5419"
   version="1.1"
   id="svg1"
   xmlns="http://www.w3.org/2000/svg"
   xmlns:svg="http://www.w3.org/2000/svg">
  <defs
     id="defs1" />
  <g
     id="layer2"
     transform="translate(0.36175478,-2.5322835)">
    <circle
       style="fill:#24221c;fill-opacity:1;stroke-width:0.264584"
       id="path11"
       cx="60.051304"
       cy="81.033089"
       r="19.534761" />
    <circle
       style="fill:#b3b3b3;fill-opacity:1;stroke-width:0.296176"
       id="path12"
       cx="59.146919"
       cy="81.213959"
       r="13.565807" />
  </g>
  <g
     id="g13"
     transform="translate(111.05872,-2.5322835)">
    <circle
       style="fill:#24221c;fill-opacity:1;stroke-width:0.264584"
       id="circle12"
       cx="60.051304"
       cy="81.033089"
       r="19.534761" />
    <circle
       style="fill:#b3b3b3;fill-opacity:1;stroke-width:0.296176"
       id="circle13"
       cx="59.146919"
       cy="81.213959"
       r="13.565807" />
  </g>
  <g
     id="layer5">
    <rect
       style="fill:#333333;fill-opacity:1;stroke-width:0.326607"
       id="rect18"
       width="3.7208452"
       height="18.449495"
       x="208.09944"
       y="66.201126" />
    <rect
       style="fill:#333333;fill-opacity:1;stroke-width:0.2442"
       id="rect39"
       width="23.533533"
       height="4.6043863"
       x="4.0927882"
       y="75.204979" />
  </g>
  <g
     id="layer1"
     transform="translate(-3.6709383,-123.71985)">
    <path
       style="display:none;fill:#000000;fill-opacity:1;stroke-width:0.264583"
       d="m 28.578575,213.43484 h 18.087697 c 0,0 -5.805461,-27.08563 15.546721,-26.92771 21.352184,0.15792 18.819905,27.28947 18.819905,27.28947 H 158.81 c 0,0 -5.06456,-27.85506 13.38489,-27.85506 18.44946,0 17.00244,27.85506 17.00244,27.85506 h 23.87576 c 0,0 7.23508,-48.83679 -24.59927,-49.19854 -31.83435,-0.36176 -21.34348,0 -21.34348,0 0,0 -10.49087,-34.36663 -24.59927,-34.36663 -14.10841,0 -71.627282,0 -71.627282,0 0,0 -19.409434,8.68969 -23.33313,23.33313 -3.923697,14.64344 -37.8032886,11.75701 -37.8032886,11.75701 0,0 -6.1498173,46.3045 18.8112056,48.11327 z M 178.3985,185.94167 279.68984,150.85146"
       id="path7" />
    <path
       style="fill:#f4eed7;fill-opacity:1;stroke-width:0.361755"
       d="m 81.19703,210.01936 c -0.251764,-12.8608 -5.57557,-21.33893 -14.573987,-23.20899 -1.109221,-0.23052 -3.66909,-0.34262 -5.809873,-0.25441 -3.328631,0.13714 -4.137467,0.30297 -6.211308,1.27344 -4.169138,1.95097 -6.844524,5.53447 -8.111003,10.86414 -0.622566,2.61992 -0.820004,10.29573 -0.33564,13.04864 l 0.274987,1.56291 -10.25567,-0.12529 C 26.486439,213.06144 25.803935,213.00862 23.842222,212.22526 16.370944,209.24179 11.691691,201.17653 9.999127,188.365 9.4464464,184.1816 9.2581786,171.87123 9.6845013,167.79239 l 0.2254861,-2.15733 6.7382956,-0.0224 c 12.792084,-0.0426 21.288488,-1.90175 26.687976,-5.83983 2.209205,-1.61127 3.257211,-3.18986 4.775077,-7.19259 0.748608,-1.97414 2.123342,-4.73591 3.054966,-6.13727 3.233441,-4.86379 10.318305,-10.89016 17.341325,-14.7505 l 2.35321,-1.29348 37.037683,0.0971 37.03769,0.0971 1.79659,0.90438 c 4.43044,2.23025 9.37966,8.44344 13.71871,17.22233 2.11719,4.28356 6.37087,14.74388 6.37087,15.66675 0,0.274 3.6288,0.39426 12.02835,0.39865 13.49101,0.007 15.26616,0.21703 19.72152,2.33287 4.74775,2.2547 8.93489,7.07393 11.31882,13.02751 2.76231,6.89854 3.74312,13.83187 3.51158,24.82326 -0.0905,4.29708 -0.28057,8.00054 -0.42234,8.22993 -0.18602,0.30097 -3.50898,0.41706 -11.93882,0.41706 h -11.68106 l -0.22245,-4.61238 c -0.69115,-14.3307 -2.59536,-14.36689 -5.52349,-18.52969 -1.74435,-2.47986 -2.86871,-2.92864 -5.72459,-4.10683 -1.86771,-0.77052 -2.72615,-0.93637 -6.08884,-0.93637 -3.38808,0 -3.91745,0.39284 -5.69215,1.26032 -1.09431,0.5349 -2.45746,1.36798 -2.8729,1.73405 -1.74799,1.54032 -3.18166,4.30651 -4.11756,7.10977 -0.95201,2.85151 -1.64376,3.35343 -1.23058,10.54274 l 0.0815,7.34654 -38.17518,0.18985 -38.52689,-0.002 z"
       id="path10" />
  </g>
  <g
     id="layer4">
    <path
       style="fill:#ffeeaa;fill-opacity:1;stroke-width:0.434984"
       d="m 197.22123,49.944807 h 9.76333 c 0,0 4.86463,4.655527 0,8.895253 -4.20351,3.663542 -9.66267,-4.722171 -9.76333,-8.895253 z"
       id="path17" />
    <path
       style="fill:#d40000;fill-opacity:1;stroke-width:0.437239"
       d="m 4.7682788,45.091448 h 4.4963278 c 0,0 2.1159194,11.063259 0,13.765738 C 4.239299,58.519375 4.239299,57.083683 4.7682788,45.091448 Z"
       id="path18" />
  </g>
  <g
     id="layer3">
    <path
       style="fill:#00ffff;fill-opacity:1;stroke-width:0.246642"
       d="m 144.60606,10.628465 3.63637,0.273957 c 0,0 12.97636,18.006829 16.1403,29.477995 0.0892,0.323594 -2.54921,0.391648 -2.54921,0.391648 0,0 -4.12268,-18.157481 -17.22746,-30.1436 z"
       id="path13" />
    <path
       style="fill:#00ffff;fill-opacity:1;stroke-width:0.274143"
       d="m 111.01688,11.510967 h 27.18697 c 0,0 16.28627,16.252777 17.6115,28.413884 0.1088,0.998464 -44.38655,0 -44.38655,0 z"
       id="path14" />
    <path
       style="fill:#00ffff;fill-opacity:1;stroke-width:0.306468"
       d="M 102.3197,10.999369 H 68.343324 c 0,0 -20.353441,16.252777 -22.009614,28.413884 -0.135978,0.998464 55.4712,0 55.4712,0 z"
       id="path15" />
    <path
       style="fill:#00ffff;fill-opacity:1;stroke-width:0.257507"
       d="m 62.117223,10.827689 -2.39425,-0.06328 c 0,0 -21.178487,14.365601 -21.858711,25.919915 -0.06281,1.066823 3.330106,0.675406 3.330106,0.675406 0,0 6.368854,-16.699651 20.922855,-26.532043 z"
       id="path16" />
  </g>
</svg>
